PathFileType	4	(X/Y/Z)	G:\TennisProject\Miami_Dimitrov_Sinner_masked_Sports2D\Miami_Dimitrov_Sinner_masked_Sports2D_px_person01.trc
DataRate	CameraRate	NumFrames	NumMarkers	Units	OrigDataRate	OrigDataStartFrame	OrigNumFrames
25	25	7	22	m	25	374	499
Frame#	Time	Hip			RHip			RKnee			RAnkle			RBigToe			RSmallToe			RHeel			LHip			LKnee			LAnkle			LBigToe			LSmallToe			LHeel			Neck			Head			Nose			RShoulder			RElbow			RWrist			LShoulder			LElbow			LWrist		
		X1	Y1	Z1	X2	Y2	Z2	X3	Y3	Z3	X4	Y4	Z4	X5	Y5	Z5	X6	Y6	Z6	X7	Y7	Z7	X8	Y8	Z8	X9	Y9	Z9	X10	Y10	Z10	X11	Y11	Z11	X12	Y12	Z12	X13	Y13	Z13	X14	Y14	Z14	X15	Y15	Z15	X16	Y16	Z16	X17	Y17	Z17	X18	Y18	Z18	X19	Y19	Z19	X20	Y20	Z20	X21	Y21	Z21	X22	Y22	Z22
374	14.96	1313.5995350241278	817.9548498300906	0.0	1329.3620349735706	820.1558471177948	0.0	1366.205045302891	854.4758688800977	0.0	1362.9026996894947	904.4475156029355	0.0	1377.8442135492573	919.7277033114245	0.0	1379.4598615473935	922.5842500376807	0.0	1357.0273794163218	911.1935206864041	0.0	1301.1743848342408	820.3461155766008	0.0	1319.2761501787334	840.7969964766888	0.0	1337.1539390699472	885.2427371619937	0.0	1354.6293333031572	885.84384197524	0.0	1346.411301083218	891.222126213924	0.0	1337.6957704183862	896.7265156253263	0.0	1326.4362738017305	738.576929941501	0.0	1344.0551248689571	701.3150356554098	0.0	1340.2907711859361	723.9951849955589	0.0	1347.5736726432347	750.7096877137112	0.0	1336.9038736563184	742.3718764211224	0.0	1320.511082467069	716.6469558426808	0.0	1300.1633898487771	741.5007743681404	0.0	1264.3827344474755	754.4332376253541	0.0	1272.859176592707	734.1272186999208	0.0
375	15.0	1330.1464699404544	822.1586902785281	0.0	1346.4262973323532	824.0194889592402	0.0	1382.7337937205655	855.6833723571926	0.0	1397.352962530153	908.8385350814242	0.0	1420.448746159812	915.9725842061694	0.0	1421.4029312403836	920.7015019480461	0.0	1393.7794620163227	916.61841760203	0.0	1317.0056613839579	824.3458684426587	0.0	1331.710583519064	842.8755868583767	0.0	1351.9830253585947	890.1167750505169	0.0	1368.0173268814253	887.147832828508	0.0	1359.3982299542304	891.3437220067126	0.0	1353.3916614338875	900.2369897860492	0.0	1340.8611077214268	742.2777951915746	0.0	1358.0552691079074	704.4888078192037	0.0	1351.3928968530963	726.3661577060584	0.0	1360.693918288271	752.2898933926349	0.0	1339.113361175754	735.0510581031921	0.0	1317.0510926016595	717.7595696856637	0.0	1316.456704273381	746.9713835896538	0.0	1282.900226391633	765.3961573011468	0.0	1283.0840704049256	742.8813116619057	0.0
376	15.040000000000001	1346.9229303858822	825.0177573078454	0.0	1363.320055690781	826.8022275937171	0.0	1398.1924289460544	858.939902020575	0.0	1429.152671536613	910.4255304188343	0.0	1452.13059083027	912.4252966273065	0.0	1455.0188582339829	916.9286130571912	0.0	1429.810746459281	919.0332126769842	0.0	1332.184590131811	827.483194921642	0.0	1339.8578845784875	842.6108547083361	0.0	1358.6239201918156	893.86764793268	0.0	1369.8859997741092	890.6049071714954	0.0	1360.24861804791	891.9392332372355	0.0	1361.1871141844638	902.9739195035694	0.0	1354.1449916626098	745.2165768988411	0.0	1369.208515198151	707.2328065054317	0.0	1357.9790201160165	727.9004841041501	0.0	1372.323803718177	752.6243243960977	0.0	1349.5174558450753	736.7665739168283	0.0	1327.3784480000618	731.8597829392446	0.0	1331.0617205496753	751.6037239273346	0.0	1304.2148535401136	778.2297838612953	0.0	1296.7413794344893	755.7946109244284	0.0
377	15.08	1363.2149112226443	826.9607471922823	0.0	1379.3217592836002	828.8674604422389	0.0	1411.8086694608228	862.797776989278	0.0	1453.450793722554	908.8896039450179	0.0	1469.7477391345487	909.4111311145115	0.0	1476.6243861086368	912.2053344854331	0.0	1459.0065184016908	917.0582387092214	0.0	1347.5132785972157	830.6937864667684	0.0	1344.160598128879	840.7295749646753	0.0	1360.233793230912	894.193843913521	0.0	1365.7838032937009	892.3069022462729	0.0	1355.7280087377026	892.6961651575093	0.0	1364.3795127221736	903.3548083288658	0.0	1365.497404249738	748.656817841222	0.0	1376.391781302117	708.8329998847184	0.0	1362.4550399443692	729.8727379148909	0.0	1382.4762620791141	753.6725731343382	0.0	1362.7071144734982	746.532516633061	0.0	1343.6302887187649	747.528711759499	0.0	1343.4617775345455	755.6809842431443	0.0	1326.5012408912444	790.8524970152164	0.0	1312.025709178706	768.8952740702267	0.0
378	15.120000000000001	1377.7999705875513	830.1466715035334	0.0	1393.4128583901925	831.863254144504	0.0	1424.068708768151	866.4818423783818	0.0	1470.9521069529555	908.2730612193741	0.0	1478.5668920537842	908.9701531405506	0.0	1488.4833566507273	909.8974351245361	0.0	1479.5630317086898	915.2740660675063	0.0	1361.8983393499807	834.9292786624623	0.0	1345.78476011888	837.729170475154	0.0	1360.5839871688338	892.4714575303027	0.0	1363.362967324752	891.6212199386664	0.0	1352.5643947001095	893.3394987473347	0.0	1366.2761987848248	902.6171468108828	0.0	1374.4743355346304	752.1923097797844	0.0	1379.7962031475367	710.335433332054	0.0	1367.3460176022913	732.8796403772355	0.0	1391.4582002192737	756.2685394157822	0.0	1376.4987568317124	759.3305772779922	0.0	1359.4983465673283	755.927581365027	0.0	1354.4693784593082	760.5486537716943	0.0	1347.5928040639883	801.2108442443352	0.0	1327.1963154535056	779.7520706430239	0.0
379	15.16	1389.4286104062912	834.4388366967775	0.0	1404.9715738378957	835.9641112531423	0.0	1434.7018018904323	869.559166774681	0.0	1483.7131543839355	910.0495635908165	0.0	1484.550674836429	910.6566124418572	0.0	1495.673914025972	910.9344572055907	0.0	1493.094390804931	916.3539478507112	0.0	1373.490108917531	838.9599646422037	0.0	1346.317061481255	834.843721430236	0.0	1361.8615635625904	891.2170845020086	0.0	1363.8402766344502	890.8434330571213	0.0	1352.3790066483825	893.9171086582992	0.0	1368.007097595293	901.8921141197479	0.0	1381.628170845888	754.1200491857177	0.0	1381.668640263637	712.8221190505892	0.0	1371.8085460310813	735.8008139620547	0.0	1399.589357457075	759.0090409700903	0.0	1389.2470694573096	769.8123519912676	0.0	1369.6273590426304	760.0116254788468	0.0	1364.4380256773086	765.981357519249	0.0	1365.7248820533114	807.8544183860411	0.0	1341.0098271378217	788.3609491224797	0.0
380	15.200000000000001	1397.920736662071	837.4280363789157	0.0	1413.6614857326967	839.5398317308634	0.0	1442.7646607436911	871.4339343830449	0.0	1491.9157430969342	911.7475585442642	0.0	1490.7970294995941	912.4028775750099	0.0	1501.6482538628793	912.8373389923236	0.0	1501.1826836727028	917.9050451356859	0.0	1381.985524595776	841.4465716554191	0.0	1347.3006948507536	833.9851309454666	0.0	1365.240443085016	891.554473615691	0.0	1363.660123926384	890.8662860981343	0.0	1354.6524053692235	894.4532549329288	0.0	1371.1743979908076	902.0884902395588	0.0	1387.399434959866	754.068148109789	0.0	1383.6165808441967	715.6504837462649	0.0	1374.1845781045954	737.6527621913613	0.0	1406.0062744846448	760.2192119919678	0.0	1396.6186512234272	773.3814897141999	0.0	1372.1587858293337	764.6616208192856	0.0	1372.2572477582016	769.9685076105721	0.0	1379.0930454015863	810.7057768318831	0.0	1351.8446034126034	795.0742192748723	0.0
